<svg xmlns="http://www.w3.org/2000/svg" width="1555" height="602"><g fill="#ff282d"><path d="M1058.1 61.93v405.5h121.8v-61.96h-40.24V.17h-81.57zM.44 405.47h41.4V209.84H.44v-53.8l41.4-6.81V94.76C41.84 28.8 56.2.16 140.33.16c18.17 0 39.7 2.69 58.56 6.09l-11.17 66.31c-12.77-2.02-19.1-2.38-27.18-2.38-29.64 0-37.13 2.95-37.13 31.91v47.13h61.54v60.62H123.4v195.63h40.97v61.94l-163.94.02v-61.96zm1016.18-19.58c-12.76 2.7-23.92 2.37-32 2.57-33.55.82-30.65-10.2-30.65-41.85V209.84h63.87v-60.61h-63.87V.16h-81.56v363.36c0 71.34 17.6 103.9 94.34 103.9 18.17 0 43.14-4.67 62-8.71zm506.68 19.91a30.8 30.8 0 0 1 31.02 30.77 30.8 30.8 0 0 1-31.02 30.76 30.72 30.72 0 0 1-30.94-30.76 30.73 30.73 0 0 1 30.94-30.77m0 56.7a25.95 25.95 0 0 0 25.83-25.93c0-14.25-11.6-25.58-25.83-25.58a25.59 25.59 0 0 0-25.76 25.58c0 14.23 11.52 25.92 25.76 25.92m5.71-10.8-6.24-9.15h-4.3v9.14h-6.95v-30.24h12.65c7.47 0 12.13 3.78 12.13 10.47 0 4.91-2.46 8.26-6.32 9.4l7.56 10.37H1529zm-10.55-15.22h5.54c3.17 0 5.28-1.22 5.28-4.56 0-3.16-2.11-4.4-5.1-4.4h-5.72v8.96zM770.6 209.72v-10.85c-24.68-4.5-49.19-4.56-62.48-4.56-37.95 0-42.58 20.13-42.58 31.04 0 15.43 5.26 23.78 46.39 32.77 60.1 13.5 120.47 27.57 120.47 102.1 0 70.69-36.38 107.2-112.95 107.2-51.24 0-100.95-11-138.89-20.62v-60.91h61.77l-.04 10.82c26.58 5.13 54.45 4.62 69 4.62 40.49 0 47.04-21.77 47.04-33.34 0-16.06-11.62-23.77-49.57-31.47-71.5-12.22-128.24-36.63-128.24-109.26 0-68.74 45.98-95.71 122.55-95.71 51.87 0 91.32 8.04 129.27 17.67v60.5zm-375.27 53.54-6.2-6.2-31.53 27.46a15 15 0 0 0-5.07-.9c-8.5 0-15.39 7.1-15.39 15.83 0 8.75 6.89 15.83 15.4 15.83 8.5 0 15.4-7.08 15.4-15.83 0-1.66-.25-3.26-.72-4.76z"/><path d="m520.26 385.89-.05-253.81h-81.56v23.8a166.73 166.73 0 0 0-55.46-20.98h.46v-28.16h9.95V86.02h-82.12v20.72h9.95v28.16h.56c-78 14.36-137.12 82.67-137.12 164.83 0 92.6 75.06 167.66 167.65 167.66 31.6 0 61.16-8.75 86.39-23.95l14.7 23.98h86.15V385.9h-19.5zm-162.85-.19v-9.58h-9.77v9.56a86.29 86.29 0 0 1-81.08-81.57h9.72v-9.77h-9.66a86.28 86.28 0 0 1 81.02-80.92v9.61h9.77v-9.64a86.28 86.28 0 0 1 81.26 78.51v2.8h-9.8v9.78h9.8v2.67a86.28 86.28 0 0 1-81.26 78.55zm1028.93-236.48h168.22v60.56h-40.2L1411.17 463.6c-29.57 71.3-78.13 138.4-152.1 138.4-18.18 0-42.4-2.01-59.18-6.04l7.37-74.03c10.78 2.01 24.89 3.34 32.3 3.34 34.3 0 72.98-21.25 85.09-58.26l-104.54-257.23h-40.21v-60.55h168.3v60.55H1308l59.23 145.7 59.22-145.7h-40.12v-60.56z"/></g></svg>