<svg id="Layer_1" xmlns="http://www.w3.org/2000/svg" viewBox="-1076.1 758.6 202.1 43.6"><style>.st10{fill:#382f27}</style><g id="XMLID_57_"><circle id="XMLID_68_" cx="-1054.3" cy="780.4" r="21.7" fill="#f4b960"/><circle id="XMLID_67_" cx="-1056.5" cy="778.2" r="19.6" fill="#e66f32"/><circle id="XMLID_66_" cx="-1053.8" cy="775.7" r="17" fill="#e43c41"/><circle id="XMLID_65_" cx="-1052.5" cy="777" r="15.6" fill="#bdd041"/><circle id="XMLID_64_" cx="-1053.6" cy="778.2" r="14.5" fill="#6db54c"/><circle id="XMLID_63_" cx="-1055.9" cy="775.8" r="12.1" fill="#aedae6"/><circle id="XMLID_62_" cx="-1054" cy="773.8" r="10.2" fill="#56b8de"/><circle id="XMLID_61_" cx="-1052.7" cy="775.2" r="8.9" fill="#00b1d5"/><radialGradient id="XMLID_2_" cx="-1053.988" cy="-164.5" r="7.661" gradientTransform="matrix(1 0 0 -1 0 611.9999)" gradientUnits="userSpaceOnUse"><stop offset="0" stop-color="#797979"/><stop offset="1" stop-color="#4c4c4c"/></radialGradient><circle id="XMLID_60_" cx="-1054" cy="776.4" r="7.6" fill="url(#XMLID_2_)"/><circle id="XMLID_59_" cx="-1054" cy="776.4" r="7.6" fill="#221f1f"/><ellipse id="XMLID_58_" transform="matrix(.4094 -.9124 .9124 .4094 -1326.5503 -501.9048)" class="st10" cx="-1050.9" cy="773.6" rx="2.4" ry="1.5"/></g><path id="XMLID_53_" class="st10" d="M-1025.5 772.2c0-.1.1-.3.3-.3h6.9c3.9 0 5.7 1.8 5.7 4.5 0 2-1 3-2.2 3.6v.1c1.1.4 2.5 1.8 2.5 3.9 0 3.4-2.3 5-6.3 5h-6.6c-.1 0-.3-.1-.3-.3v-16.5zm7.1 6.8c1.6 0 2.6-.9 2.6-2.2 0-1.4-1-2.3-2.6-2.3h-3.7c-.1 0-.1.1-.1.1v4.2c0 .1.1.1.1.1-.1.1 3.7.1 3.7.1zm-3.8 7.2h3.9c1.8 0 2.8-.9 2.8-2.4s-1-2.4-2.8-2.4h-3.9c-.1 0-.1.1-.1.1v4.4c-.1.3.1.3.1.3z"/><path id="XMLID_51_" class="st10" d="M-1010.1 788.8c-.1 0-.3-.1-.3-.3v-11.6c0-.1.1-.3.3-.3h2.5c.1 0 .3.1.3.3v1h.1c.6-.9 1.8-1.6 3.4-1.6 1 0 2.1.4 2.7 1 .1.1.1.3.1.3l-1.4 1.7c-.1.1-.3.1-.4.1-.6-.3-1.2-.6-2-.6-1.7 0-2.5 1.1-2.5 3.1v6.5c0 .1-.1.3-.3.3l-2.5.1z"/><path id="XMLID_48_" class="st10" d="M-1000.6 785.8c-.3-.8-.5-1.6-.5-3s.1-2.2.5-3c.8-2.2 2.7-3.3 5.4-3.3s4.6 1.2 5.4 3.3c.3.8.5 1.6.5 3s-.1 2.2-.5 3c-.8 2.2-2.7 3.3-5.4 3.3s-4.7-1.1-5.4-3.3zm7.9-.7c.3-.6.3-1.2.3-2.2s-.1-1.6-.3-2.2c-.4-1-1.2-1.6-2.5-1.6-1.2 0-2.1.6-2.5 1.6-.3.7-.3 1.2-.3 2.2s.1 1.6.3 2.2c.4 1 1.2 1.6 2.5 1.6 1.2 0 2-.6 2.5-1.6z"/><path id="XMLID_46_" class="st10" d="M-976.3 788.8c-.1 0-.3-.1-.3-.3l-2.5-7.8h-.1l-2.5 7.7c-.1.1-.1.3-.3.3h-2.2c-.1 0-.3-.1-.3-.3l-4.1-11.6c-.1-.1.1-.3.2-.3h2.6c.2 0 .3.1.3.3l2.5 8h.1l2.5-8c.1-.1.2-.3.3-.3h2c.1 0 .3.1.3.3l2.6 8h.1l2.4-8c.1-.2.1-.3.3-.3h2.6c.1 0 .3.1.2.3l-4 11.6c-.1.1-.1.3-.3.3l-2.4.1z"/><path id="XMLID_44_" class="st10" d="M-969.1 787.2c-.1-.1-.1-.3 0-.3l1.6-1.5c.1-.1.3-.1.4 0 .9.8 2.5 1.4 3.9 1.4 1.6 0 2.4-.6 2.4-1.4 0-.7-.5-1.2-2.2-1.3l-1.4-.1c-2.6-.3-4-1.5-4-3.5 0-2.3 1.8-3.9 5-3.9 2 0 3.7.6 4.9 1.4.1.1.1.3.1.3l-1.3 1.4c-.1.1-.3.1-.4.1-.8-.5-2.2-1-3.4-1-1.3 0-2 .5-2 1.3 0 .7.5 1.1 2.2 1.3l1.4.1c2.7.3 4 1.6 4 3.5 0 2.4-1.9 4.1-5.5 4.1-2.7.1-4.6-.9-5.7-1.9z"/><path id="XMLID_41_" class="st10" d="M-955.9 785.8c-.3-.8-.5-1.7-.5-3s.1-2.2.5-3c.8-2.2 2.7-3.3 5.4-3.3s4.6 1.3 5.4 3.3c.3.8.5 1.7.5 3.7 0 .1-.1.3-.3.3h-8.2c-.1 0-.1.1-.1.1 0 .3.1.7.2.9.5 1.2 1.4 1.8 2.9 1.8s2.4-.5 3.1-1.1c.1-.1.3-.1.5-.1l1.6 1.3c.1.1.1.3.1.3-1.1 1.2-3 2.1-5.4 2.1-3 .1-5-1.1-5.7-3.3zm7.9-5.4c-.3-1-1.3-1.6-2.5-1.6s-2.2.6-2.6 1.6c-.1.3-.1.6-.1 1 0 .1.1.1.1.1h5.2c.1 0 .1-.1.1-.1-.1-.3-.1-.7-.2-1z"/><path id="XMLID_39_" class="st10" d="M-942.6 788.8c-.1 0-.3-.1-.3-.3v-11.6c0-.1.1-.3.3-.3h2.5c.1 0 .3.1.3.3v1h.1c.6-.9 1.8-1.6 3.4-1.6 1 0 2.1.4 2.7 1 .1.1.1.3.1.3l-1.4 1.7c-.1.1-.3.1-.4.1-.6-.3-1.2-.6-2-.6-1.7 0-2.5 1.1-2.5 3.1v6.5c0 .1-.1.3-.3.3l-2.5.1z"/><path id="XMLID_37_" class="st10" d="M-933.1 787c-.1-.1-.1-.3-.1-.4l1.7-1.8c.1-.1.3-.1.4-.1 1.2.9 3 1.8 5 1.8 2.2 0 3.5-1 3.5-2.5 0-1.2-.8-2-3.3-2.4l-1-.1c-3.5-.5-5.5-2-5.5-4.8 0-3.1 2.5-5.2 6.2-5.2 2.3 0 4.5.7 5.9 1.7.1.1.1.2.1.3l-1.3 1.8c-.1.1-.3.1-.4.1-1.5-.9-2.9-1.3-4.4-1.3-1.9 0-2.9.9-2.9 2.3 0 1.2.9 2 3.4 2.3l1 .1c3.5.5 5.5 2 5.5 5s-2.4 5.3-6.9 5.3c-2.9.1-5.5-.9-6.9-2.1z"/><path id="XMLID_35_" class="st10" d="M-913.8 789.1c-2.6 0-3.7-1.2-3.7-3.5v-6.4c0-.1-.1-.1-.1-.1h-.8c-.1 0-.3-.1-.3-.3v-1.7c0-.1.1-.3.3-.3h.8c.1 0 .1-.1.1-.1v-3.3c0-.1.1-.3.3-.3h2.5c.1 0 .3.1.3.3v3.3c0 .1.1.1.1.1h1.8c.1 0 .3.1.3.3v1.7c0 .1-.1.3-.3.3h-1.8c-.1 0-.1.1-.1.1v6.3c0 .8.4 1.1 1.2 1.1h.7c.1 0 .3.1.3.3v2c0 .1-.1.3-.3.3l-1.3-.1z"/><path id="XMLID_32_" class="st10" d="M-902.3 788.8c-.1 0-.3-.1-.3-.3v-.9c-.6.8-1.8 1.4-3.7 1.4-2.4 0-4.4-1.1-4.4-3.7s2-3.9 5.2-3.9h2.6c.1 0 .1-.1.1-.1v-.6c0-1.4-.7-2-2.9-2-1.4 0-2.4.4-3 .8-.1.1-.3.1-.4-.1l-1-1.6c-.1-.1-.1-.3.1-.3 1-.7 2.5-1.2 4.6-1.2 4 0 5.4 1.3 5.4 4.2v7.8c0 .1-.1.3-.3.3l-2 .2zm-.3-4v-.9c0-.1-.1-.1-.1-.1h-2.2c-2 0-2.8.5-2.8 1.6 0 1 .8 1.5 2.3 1.5 1.7-.1 2.8-.7 2.8-2.1z"/><path id="XMLID_30_" class="st10" d="M-897.4 785.8c-.3-.8-.5-1.7-.5-3s.1-2.2.5-3c.8-2.2 2.8-3.3 5.4-3.3 2 0 3.5.7 4.5 1.9.1.1.1.3-.1.3l-1.7 1.4c-.1.1-.3.1-.4-.1-.7-.7-1.3-1-2.4-1-1.2 0-2.1.5-2.5 1.6-.3.6-.3 1.3-.3 2.2s.1 1.6.3 2.3c.4 1 1.3 1.6 2.5 1.6 1.1 0 1.8-.4 2.4-1 .1-.1.3-.1.4-.1l1.7 1.4c.1.1.1.3.1.3-1 1.1-2.6 1.8-4.5 1.8-2.6.1-4.6-1.1-5.4-3.3z"/><path id="XMLID_28_" class="st10" d="M-876.9 788.8c-.2 0-.3-.1-.5-.3l-3.3-5-1.8 1.9v3.1c0 .1-.1.3-.3.3h-2.5c-.1 0-.3-.1-.3-.3V772c0-.1.1-.3.3-.3h2.5c.1 0 .3.1.3.3v9.8l4.5-4.8c.1-.2.3-.3.5-.3h2.8c.1 0 .3.1.1.3l-4.2 4.4 4.7 7.2c.1.1.1.3-.1.3l-2.7-.1z"/></svg>
