<svg version="1" xmlns="http://www.w3.org/2000/svg" width="1738.667" height="1738.667" viewBox="0 0 1304.000000 1304.000000"><path d="M0 652v452h289.5V200.5l-144.7-.3L0 200v452zM338.7 200.7c-.4.6-.1 893.5.3 902 0 1 29.6 1.3 144.5 1.3s144.5-.3 144.6-1.3c.1-.6 0-1.7-.1-2.2-.5-2.7-.5-7.3.1-9.6.4-1.5.3-3.2-.1-4-.5-.7-.5-2 0-2.9.6-1.1.5-2.1-.1-2.7-.6-.6-.7-1.3-.2-1.6.4-.3.6-3.7.3-7.6-.3-3.9-.2-7.9.1-8.9.3-.9.3-2.6-.1-3.7s-.4-2.9 0-4 .4-2.9 0-4-.4-2.9 0-3.9c.3-1.1.3-3.8 0-6.2-.4-2.4-.3-4.9.1-5.6.4-.7.3-1.8-.2-2.4-.6-.7-.6-1.5-.1-1.8.5-.3.6-2.7.2-5.3-.3-2.7-.3-6 0-7.3.4-1.4.3-4-.1-5.8-.4-1.7-.3-3.2.2-3.2s.4-1.1-.1-2.5c-.6-1.5-.6-2.5 0-2.5.5 0 .5-1.2.1-2.8-.4-1.5-.5-3.8-.1-5.2.4-1.4.4-3.6 0-5s-.4-3.6 0-5c.3-1.4.3-4-.1-5.8-.4-1.7-.3-3.2.2-3.2s.4-1.1-.1-2.5c-.6-1.5-.6-2.5 0-2.5.5 0 .5-1.2.1-2.8-.4-1.5-.5-3.8-.1-5.2.4-1.4.4-3.6 0-5s-.4-3.6 0-5c.3-1.4.3-4-.1-5.8-.4-1.7-.3-3.2.2-3.2s.4-1.1-.1-2.5c-.6-1.5-.6-2.5 0-2.5.5 0 .5-1.2.1-2.8-.4-1.5-.5-3.8-.1-5.2.4-1.4.4-3.6 0-5s-.4-3.6 0-5c.3-1.4.3-4-.1-5.8-.4-1.7-.3-3.2.2-3.2s.4-1.1-.1-2.5c-.6-1.5-.6-2.5 0-2.5.5 0 .5-1.2.1-2.8-.4-1.5-.5-3.8-.1-5.2.3-1.3.3-4.6 0-7.1-.3-2.6-.3-5.5.1-6.5.3-1.1.3-2.8-.1-3.9s-.4-2.9 0-4 .4-2.9 0-4-.4-2.9 0-3.9c.3-1.1.3-3.8 0-6.2-.4-2.4-.3-4.9.1-5.6.4-.7.3-1.8-.2-2.4-.6-.7-.6-1.4-.2-1.7.5-.3.6-3.7.3-7.6-.3-3.9-.2-7.9.1-8.9.3-.9.3-2.6-.1-3.7s-.4-2.9 0-4 .4-2.9 0-4-.4-2.9 0-3.9c.3-1.1.3-3.8 0-6.2-.4-2.4-.3-4.9.1-5.6.4-.7.3-1.8-.2-2.4-.6-.7-.6-1.4-.2-1.7.5-.3.6-3.7.3-7.6-.3-3.9-.2-7.9.1-8.9.3-.9.3-2.6-.1-3.7s-.4-2.9 0-4 .4-2.9 0-4-.4-2.9 0-3.9c.3-1.1.3-3.8 0-6.2-.4-2.4-.3-4.9.1-5.6.4-.7.3-1.8-.2-2.4-.6-.7-.6-1.4-.2-1.7.5-.3.6-3.7.3-7.6-.3-3.9-.2-7.9.1-8.9.3-.9.3-2.6-.1-3.7s-.4-2.9 0-4 .4-2.9 0-4-.4-2.9 0-3.9c.3-1.1.3-3.8 0-6.2-.4-2.4-.3-4.9.1-5.6.4-.7.3-1.8-.2-2.4-.6-.7-.6-1.4-.2-1.7.5-.3.6-3.7.3-7.6-.3-3.9-.2-7.9.1-8.9.3-.9.3-2.6-.1-3.7s-.4-2.9 0-4 .4-2.9 0-4-.4-2.9 0-3.9c.3-1.1.3-3.8 0-6.2-.4-2.4-.3-4.9.1-5.6.4-.7.3-1.8-.2-2.4-.7-.8-.6-1.4.1-1.9.6-.3.8-1 .6-1.4-.3-.4-.5-3.9-.5-7.7-.1-10-.1-10.4-.2-15.7-.1-2.7.1-5 .4-5.3.2-.3.1-2.1-.3-4-.4-1.8-.4-3.4.1-3.4s.4-1.1-.1-2.5c-.6-1.5-.6-2.5 0-2.5.5 0 .5-1.2.1-2.8-.4-1.5-.5-3.8-.1-5.2.4-1.4.4-3.6 0-5s-.4-3.6 0-5c.3-1.4.3-4-.1-5.8-.4-1.7-.3-3.2.2-3.2s.4-1.1-.1-2.5c-.6-1.5-.6-2.5 0-2.5.5 0 .5-1.2.1-2.8-.4-1.5-.5-3.8-.1-5.2.4-1.4.3-3.5-.1-4.6-.4-1.2-.6-2.4-.3-2.7 1-1 .9-12.7-.1-12.7-.7 0-.7-.3 0-.8 1.2-.8 1.4-11.2.2-11.2-.5 0-.5-.5-.1-1.2 1.1-1.7 1.1-5.8.1-5.8-.4 0-.5-.6 0-1.3 1.1-1.8 1-11.7-.2-11.7-.7 0-.7-.3 0-.8 1.2-.8 1.4-11.2.2-11.2-.5 0-.5-.5-.1-1.2 1.1-1.7 1.1-5.8.1-5.8-.4 0-.5-.6 0-1.3 1.1-1.8 1-11.7-.2-11.7-.7 0-.7-.3 0-.8 1.2-.8 1.4-11.2.2-11.2-.5 0-.5-.5-.1-1.2 1.1-1.7 1.1-5.8.1-5.8-.4 0-.5-.6 0-1.3 1.1-1.8 1-11.7-.2-11.7-.7 0-.7-.3 0-.8 1.2-.8 1.4-11.2.2-11.2-.5 0-.5-.5-.1-1.2 1.1-1.7 1.1-5.8.1-5.8-.4 0-.5-.6 0-1.3 1.1-1.8 1-11.7-.2-11.7-.7 0-.7-.3 0-.8 1.2-.8 1.4-11.2.2-11.2-.5 0-.5-.5-.1-1.2 1.1-1.7 1.1-5.8.1-5.8-.4 0-.5-.6 0-1.3 1.1-1.8 1-11.7-.2-11.7-.7 0-.7-.3 0-.8 1.2-.9 1.3-11.2.1-11.2-.5 0-.5-.6 0-1.3 1-1.4 1.1-21.5.1-24.1-.4-.9-.3-1.5.1-1.2.9.5.8-12.7-.2-14.2-.3-.6-.3-1.3.1-1.5 1-.7.8-30.1-.2-31.7-.5-.7-.4-1.1.1-.7 1 .6 1.1-12.4 0-14.1-.3-.6-.3-1.3.1-1.5 1-.7.8-30.1-.2-31.7-.5-.7-.4-1.1.1-.7 1 .6 1.1-12.4 0-14.1-.3-.6-.3-1.3.1-1.5 1-.7.8-30.1-.2-31.7-.5-.7-.4-1.1.1-.8.5.4.9-2.4.9-6.3 0-3.8-.4-6.9-.9-6.9-.6 0-.5-.5.1-1.1.6-.6.9-1.8.6-2.5-.4-1.2-23.1-1.4-144.8-1.4-79.4 0-144.6.3-144.8.7zM676.9 200.7c-.1.5-.1 203.7-.1 451.8v451l145 .3 145 .2V200H821.9c-79.7 0-144.9.3-145 .7zM1015.7 200.6c-.3.3-.2 1.6.2 2.8.4 1.1.5 3.2.1 4.6-.4 1.4-.3 3.7.1 5.2s.4 3-.1 3.3c-.5.3-.5 1.8-.1 3.3.5 1.5.5 3.6.1 4.7s-.4 3.2.1 4.7c.4 1.5.4 3-.1 3.3-.5.3-.5 1.8-.1 3.3.5 1.5.5 3.6.1 4.7s-.4 3.2.1 4.7c.4 1.5.4 3-.1 3.3-.5.3-.5 1.8-.1 3.3.5 1.5.5 3.6.1 4.7s-.4 3.2.1 4.7c.4 1.5.4 3-.1 3.3-.5.3-.5 1.8-.1 3.3.5 1.5.5 3.6.1 4.7s-.4 3.2.1 4.7c.4 1.5.4 3-.1 3.3-.5.3-.5 1.8-.1 3.3.5 1.5.5 3.6.1 4.7s-.4 3.2.1 4.7c.4 1.5.4 3-.1 3.3-.5.3-.5 1.8-.1 3.3.5 1.5.5 3.6.1 4.7s-.4 3.2.1 4.7c.4 1.5.4 3-.1 3.3-.5.3-.5 1.8-.1 3.3.5 1.5.5 3.6.1 4.7s-.4 3.2.1 4.7c.4 1.5.4 3-.1 3.3-.5.3-.5 1.8-.1 3.3.5 1.5.5 3.6.1 4.7s-.4 3.2.1 4.7c.4 1.5.4 3-.1 3.3-.5.3-.5 1.8-.1 3.3.5 1.5.5 3.6.1 4.7s-.4 3.2.1 4.7c.4 1.5.4 3-.1 3.3-.5.3-.5 1.8-.1 3.3.5 1.5.5 3.6.1 4.7s-.4 3.2.1 4.7c.4 1.5.4 3-.1 3.3-.5.3-.5 1.8-.1 3.3.5 1.5.5 3.6.1 4.7s-.4 3.2.1 4.7c.4 1.5.4 3-.1 3.3-.5.3-.5 1.8-.1 3.3.5 1.5.5 3.6.1 4.7s-.4 3.2.1 4.7c.4 1.5.4 3-.1 3.3-.5.3-.5 1.8-.1 3.3.5 1.5.5 3.6.1 4.7s-.4 3.2.1 4.7c.4 1.5.4 3-.1 3.3-.5.3-.5 1.8-.1 3.3.5 1.5.5 3.6.1 4.7s-.4 3.2.1 4.7c.4 1.5.4 3-.1 3.3-.5.3-.5 1.8-.1 3.3.5 1.5.5 3.6.1 4.7s-.4 3.2.1 4.7c.4 1.5.4 3-.1 3.3-.5.3-.5 1.8-.1 3.3.5 1.5.5 3.6.1 4.7s-.4 3.2.1 4.7c.4 1.5.4 3-.1 3.3-.5.3-.5 1.8-.1 3.3.5 1.5.5 3.6.1 4.7s-.4 3.2.1 4.7c.4 1.5.4 3-.1 3.3-.5.3-.5 1.8-.1 3.3.5 1.5.5 3.6.1 4.7s-.4 3.2.1 4.7c.4 1.5.4 3-.1 3.3-.5.3-.5 1.8-.1 3.3.5 1.5.5 3.6.1 4.7s-.4 3.2.1 4.7c.4 1.5.4 3-.1 3.3-.5.3-.5 1.8-.1 3.3.5 1.5.5 3.6.1 4.7s-.4 3.2.1 4.7c.4 1.5.4 3-.1 3.3-.5.3-.5 1.8-.1 3.3.5 1.5.5 3.6.1 4.7s-.4 3.2.1 4.7c.4 1.5.4 3-.1 3.3-.5.3-.5 1.8-.1 3.3.5 1.5.5 3.6.1 4.7s-.4 3.2.1 4.7c.4 1.5.4 3-.1 3.3-.5.3-.5 1.8-.1 3.3.5 1.5.5 3.6.1 4.7s-.4 3.2.1 4.7c.4 1.5.4 3-.1 3.3-.5.3-.5 1.8-.1 3.3.5 1.5.5 3.6.1 4.7s-.4 3.2.1 4.7c.4 1.5.4 3-.1 3.3-.5.3-.5 1.8-.1 3.3.5 1.5.5 3.6.1 4.7s-.4 3.2.1 4.7c.4 1.5.4 3-.1 3.3-.5.3-.5 1.8-.1 3.3.5 1.5.5 3.6.1 4.7s-.4 3.2.1 4.7c.4 1.5.4 3-.1 3.3-.5.3-.5 1.8-.1 3.3.5 1.5.5 3.6.1 4.7s-.4 3.2.1 4.7c.4 1.5.4 3-.1 3.3-.5.3-.5 1.8-.1 3.3.5 1.5.5 3.6.1 4.7s-.4 3.2.1 4.7c.4 1.5.4 3-.1 3.3-.5.3-.5 1.8-.1 3.3.5 1.5.5 3.6.1 4.7s-.4 3.2.1 4.7c.4 1.5.4 3-.1 3.3-.5.3-.5 1.8-.1 3.3.5 1.5.5 3.6.1 4.7s-.4 3.2.1 4.7c.4 1.5.4 3-.1 3.3-.5.3-.5 1.8-.1 3.3.5 1.5.5 3.6.1 4.7s-.4 3.2.1 4.7c.4 1.5.4 3-.1 3.3-.5.3-.5 1.8-.1 3.3.5 1.5.5 3.6.1 4.7s-.4 3.2.1 4.7c.4 1.5.4 3-.1 3.3-.5.3-.5 1.8-.1 3.3.5 1.5.5 3.6.1 4.7s-.4 3.2.1 4.7c.4 1.5.4 3-.1 3.3-.5.3-.5 1.8-.1 3.3.5 1.5.5 3.6.1 4.7s-.4 3.2.1 4.7c.4 1.5.4 3-.1 3.3-.5.3-.5 1.8-.1 3.3.5 1.5.5 3.6.1 4.7s-.4 3.2.1 4.7c.4 1.5.4 3-.1 3.3-.5.3-.5 1.8-.1 3.3.5 1.5.5 3.6.1 4.7s-.4 3.2.1 4.7c.4 1.5.4 3-.1 3.3-.5.3-.5 1.8-.1 3.3.5 1.5.5 3.6.1 4.7s-.4 3.2.1 4.7c.4 1.5.4 3-.1 3.3-.5.3-.5 1.8-.1 3.3.5 1.5.5 3.6.1 4.7s-.4 3.2.1 4.7c.4 1.5.4 3-.1 3.3-.5.3-.5 1.8-.1 3.3.5 1.5.5 3.6.1 4.7s-.4 3.2.1 4.7c.4 1.5.4 3-.1 3.3-.5.3-.5 1.8-.1 3.3.5 1.5.5 3.6.1 4.7s-.4 3.2.1 4.7c.4 1.5.4 3-.1 3.3-.5.3-.5 1.8-.1 3.3.5 1.5.5 3.6.1 4.7s-.4 3.2.1 4.7c.4 1.5.4 3-.1 3.3-.5.3-.5 1.8-.1 3.3.5 1.5.5 3.6.1 4.7s-.4 3.2.1 4.7c.4 1.5.4 3-.1 3.3-.5.3-.5 1.8-.1 3.3.5 1.5.5 3.6.1 4.7s-.4 3.2.1 4.7c.4 1.5.4 3-.1 3.3-.5.3-.5 1.8-.1 3.3.5 1.5.5 3.6.1 4.7s-.4 3.2.1 4.7c.4 1.5.4 3-.1 3.3-.5.3-.5 1.8-.1 3.3.5 1.5.5 3.6.1 4.7s-.4 3.2.1 4.7c.4 1.5.4 3-.1 3.3-.5.3-.5 1.8-.1 3.3.5 1.5.5 3.6.1 4.7s-.4 3.2.1 4.7c.4 1.5.4 3-.1 3.3-.5.3-.5 1.8-.1 3.3.5 1.5.5 3.6.1 4.7s-.4 3.2.1 4.7c.4 1.5.4 3-.1 3.3-.5.3-.5 1.8-.1 3.3.5 1.5.5 3.6.1 4.7s-.4 3.2.1 4.7c.4 1.5.4 3-.1 3.3-.5.3-.5 1.8-.1 3.3.5 1.5.5 3.6.1 4.7s-.4 3.2.1 4.7c.4 1.5.4 3-.1 3.3-.5.3-.5 1.8-.1 3.3.5 1.5.5 3.6.1 4.7s-.4 3.2.1 4.7c.4 1.5.4 3-.1 3.3-.5.3-.5 1.8-.2 3.3.4 1.5.6 4 .5 5.7-.6 6.5-.5 12.3.1 13.4.4.6.2 1.1-.4 1.1-.6 0-.8.5-.5 1.1.4.6.7 3.3.6 6-.1 2.7-.1 7.1-.2 9.8-.1 2.7.2 5.4.5 6 .4.5.2 1.2-.4 1.6-.6.4-.7 1.1-.4 1.7.4.6.6 3 .5 5.4-.3 12.5-.3 14.2.3 15.3.4.6.2 1.1-.4 1.1-.6 0-.8.5-.5 1.1.7 1 1 9.3.5 11.4-.1.5-.2 1.6-.1 2.2.1 1 29.6 1.3 144.1 1.3h144V200h-143.8c-79.1 0-144.1.3-144.5.6z"/></svg>